<mxfile host="app.diagrams.net" agent="Mozilla/5.0 (Windows NT 10.0; Win64; x64) AppleWebKit/537.36 (KHTML, like Gecko) Chrome/135.0.0.0 Safari/537.36" version="26.2.8">
  <diagram name="第 1 页" id="VdADk5KuVTxu9DorlfLl">
    <mxGraphModel dx="1182" dy="630" grid="1" gridSize="10" guides="1" tooltips="1" connect="1" arrows="1" fold="1" page="1" pageScale="1" pageWidth="827" pageHeight="1169" math="0" shadow="0">
      <root>
        <mxCell id="0" />
        <mxCell id="1" parent="0" />
        <mxCell id="7R4HDPwRscD3Cdx_cYnu-4" value="" style="shape=internalStorage;whiteSpace=wrap;html=1;backgroundOutline=1;" vertex="1" parent="1">
          <mxGeometry x="60" y="223.13" width="80" height="80" as="geometry" />
        </mxCell>
        <mxCell id="7R4HDPwRscD3Cdx_cYnu-5" value="" style="shape=internalStorage;whiteSpace=wrap;html=1;backgroundOutline=1;" vertex="1" parent="1">
          <mxGeometry x="60" y="333.13" width="80" height="120" as="geometry" />
        </mxCell>
        <mxCell id="7R4HDPwRscD3Cdx_cYnu-19" value="&lt;font style=&quot;font-size: 9px;&quot;&gt;Cell1...&lt;/font&gt;" style="text;html=1;align=center;verticalAlign=middle;resizable=0;points=[];autosize=1;strokeColor=none;fillColor=none;" vertex="1" parent="1">
          <mxGeometry x="50" y="193.13" width="50" height="30" as="geometry" />
        </mxCell>
        <mxCell id="7R4HDPwRscD3Cdx_cYnu-21" value="&lt;font style=&quot;font-size: 10px;&quot;&gt;Gene 1&lt;/font&gt;&lt;div&gt;&lt;font style=&quot;font-size: 10px;&quot;&gt;....&lt;/font&gt;&lt;/div&gt;" style="text;html=1;align=center;verticalAlign=middle;resizable=0;points=[];autosize=1;strokeColor=none;fillColor=none;" vertex="1" parent="1">
          <mxGeometry x="10" y="216.13" width="60" height="40" as="geometry" />
        </mxCell>
        <mxCell id="7R4HDPwRscD3Cdx_cYnu-22" value="&lt;font style=&quot;font-size: 10px;&quot;&gt;Peak 1&lt;/font&gt;&lt;div&gt;&lt;font style=&quot;font-size: 10px;&quot;&gt;...&lt;/font&gt;&lt;/div&gt;" style="text;html=1;align=center;verticalAlign=middle;resizable=0;points=[];autosize=1;strokeColor=none;fillColor=none;" vertex="1" parent="1">
          <mxGeometry x="10" y="333.13" width="50" height="40" as="geometry" />
        </mxCell>
        <mxCell id="7R4HDPwRscD3Cdx_cYnu-24" value="" style="shape=trapezoid;perimeter=trapezoidPerimeter;whiteSpace=wrap;html=1;fixedSize=1;rotation=90;size=87.5;" vertex="1" parent="1">
          <mxGeometry x="102.5" y="280.63" width="265" height="90" as="geometry" />
        </mxCell>
        <mxCell id="7R4HDPwRscD3Cdx_cYnu-26" value="" style="endArrow=classic;html=1;rounded=0;" edge="1" parent="1">
          <mxGeometry width="50" height="50" relative="1" as="geometry">
            <mxPoint x="150" y="262.89" as="sourcePoint" />
            <mxPoint x="180" y="262.89" as="targetPoint" />
            <Array as="points" />
          </mxGeometry>
        </mxCell>
        <mxCell id="7R4HDPwRscD3Cdx_cYnu-27" value="" style="endArrow=classic;html=1;rounded=0;" edge="1" parent="1">
          <mxGeometry width="50" height="50" relative="1" as="geometry">
            <mxPoint x="150" y="392.89" as="sourcePoint" />
            <mxPoint x="180" y="392.89" as="targetPoint" />
            <Array as="points" />
          </mxGeometry>
        </mxCell>
        <mxCell id="7R4HDPwRscD3Cdx_cYnu-28" value="Encoder" style="text;strokeColor=none;fillColor=none;align=left;verticalAlign=middle;spacingLeft=4;spacingRight=4;overflow=hidden;points=[[0,0.5],[1,0.5]];portConstraint=eastwest;rotatable=0;whiteSpace=wrap;html=1;" vertex="1" parent="1">
          <mxGeometry x="210" y="310.63" width="80" height="30" as="geometry" />
        </mxCell>
        <mxCell id="7R4HDPwRscD3Cdx_cYnu-30" value="" style="endArrow=classic;html=1;rounded=0;" edge="1" parent="1">
          <mxGeometry width="50" height="50" relative="1" as="geometry">
            <mxPoint x="300" y="325.39" as="sourcePoint" />
            <mxPoint x="330" y="325.39" as="targetPoint" />
            <Array as="points" />
          </mxGeometry>
        </mxCell>
        <mxCell id="7R4HDPwRscD3Cdx_cYnu-36" value="" style="shape=internalStorage;whiteSpace=wrap;html=1;backgroundOutline=1;dx=20;dy=10;" vertex="1" parent="1">
          <mxGeometry x="390" y="310.63" width="80" height="30" as="geometry" />
        </mxCell>
        <mxCell id="7R4HDPwRscD3Cdx_cYnu-38" value="&lt;font style=&quot;font-size: 10px;&quot;&gt;Cell1...&lt;/font&gt;" style="text;html=1;align=center;verticalAlign=middle;resizable=0;points=[];autosize=1;strokeColor=none;fillColor=none;" vertex="1" parent="1">
          <mxGeometry x="380" y="280.63" width="50" height="30" as="geometry" />
        </mxCell>
        <mxCell id="7R4HDPwRscD3Cdx_cYnu-39" value="&lt;font style=&quot;font-size: 10px;&quot;&gt;Feature1&lt;/font&gt;&lt;div&gt;&lt;font style=&quot;font-size: 10px;&quot;&gt;...&lt;/font&gt;&lt;/div&gt;" style="text;html=1;align=center;verticalAlign=middle;resizable=0;points=[];autosize=1;strokeColor=none;fillColor=none;" vertex="1" parent="1">
          <mxGeometry x="330" y="303.13" width="60" height="40" as="geometry" />
        </mxCell>
        <mxCell id="7R4HDPwRscD3Cdx_cYnu-45" value="" style="ellipse;whiteSpace=wrap;html=1;aspect=fixed;" vertex="1" parent="1">
          <mxGeometry x="410" y="411.88" width="10" height="10" as="geometry" />
        </mxCell>
        <mxCell id="7R4HDPwRscD3Cdx_cYnu-46" value="" style="ellipse;whiteSpace=wrap;html=1;aspect=fixed;" vertex="1" parent="1">
          <mxGeometry x="400" y="421.88" width="10" height="10" as="geometry" />
        </mxCell>
        <mxCell id="7R4HDPwRscD3Cdx_cYnu-47" value="" style="ellipse;whiteSpace=wrap;html=1;aspect=fixed;direction=south;" vertex="1" parent="1">
          <mxGeometry x="410" y="431.88" width="10" height="10" as="geometry" />
        </mxCell>
        <mxCell id="7R4HDPwRscD3Cdx_cYnu-48" value="" style="ellipse;whiteSpace=wrap;html=1;aspect=fixed;" vertex="1" parent="1">
          <mxGeometry x="410" y="451.88" width="10" height="10" as="geometry" />
        </mxCell>
        <mxCell id="7R4HDPwRscD3Cdx_cYnu-49" value="" style="ellipse;whiteSpace=wrap;html=1;aspect=fixed;" vertex="1" parent="1">
          <mxGeometry x="430" y="459.38" width="10" height="10" as="geometry" />
        </mxCell>
        <mxCell id="7R4HDPwRscD3Cdx_cYnu-52" value="" style="endArrow=classic;html=1;rounded=0;" edge="1" parent="1">
          <mxGeometry width="50" height="50" relative="1" as="geometry">
            <mxPoint x="380" y="473.9" as="sourcePoint" />
            <mxPoint x="490" y="473.13" as="targetPoint" />
          </mxGeometry>
        </mxCell>
        <mxCell id="7R4HDPwRscD3Cdx_cYnu-53" value="" style="endArrow=classic;html=1;rounded=0;" edge="1" parent="1">
          <mxGeometry width="50" height="50" relative="1" as="geometry">
            <mxPoint x="380" y="474.38" as="sourcePoint" />
            <mxPoint x="380" y="383.13" as="targetPoint" />
          </mxGeometry>
        </mxCell>
        <mxCell id="7R4HDPwRscD3Cdx_cYnu-55" value="" style="endArrow=classic;html=1;rounded=0;" edge="1" parent="1">
          <mxGeometry width="50" height="50" relative="1" as="geometry">
            <mxPoint x="430" y="352.84" as="sourcePoint" />
            <mxPoint x="430" y="380" as="targetPoint" />
            <Array as="points" />
          </mxGeometry>
        </mxCell>
        <mxCell id="7R4HDPwRscD3Cdx_cYnu-56" value="" style="ellipse;whiteSpace=wrap;html=1;aspect=fixed;" vertex="1" parent="1">
          <mxGeometry x="400" y="400.63" width="10" height="10" as="geometry" />
        </mxCell>
        <mxCell id="7R4HDPwRscD3Cdx_cYnu-57" value="" style="ellipse;whiteSpace=wrap;html=1;aspect=fixed;" vertex="1" parent="1">
          <mxGeometry x="440" y="449.38" width="10" height="10" as="geometry" />
        </mxCell>
        <mxCell id="7R4HDPwRscD3Cdx_cYnu-58" value="" style="ellipse;whiteSpace=wrap;html=1;aspect=fixed;" vertex="1" parent="1">
          <mxGeometry x="440" y="443.13" width="10" height="10" as="geometry" />
        </mxCell>
        <mxCell id="7R4HDPwRscD3Cdx_cYnu-59" value="" style="ellipse;whiteSpace=wrap;html=1;aspect=fixed;" vertex="1" parent="1">
          <mxGeometry x="450" y="451.88" width="10" height="10" as="geometry" />
        </mxCell>
        <mxCell id="7R4HDPwRscD3Cdx_cYnu-60" value="&lt;font style=&quot;font-size: 10px;&quot;&gt;Trajectory&lt;/font&gt;&lt;div&gt;&lt;font style=&quot;font-size: 10px;&quot;&gt;I&lt;/font&gt;&lt;span style=&quot;font-size: 10px; background-color: transparent; color: light-dark(rgb(0, 0, 0), rgb(255, 255, 255));&quot;&gt;nference&lt;/span&gt;&lt;/div&gt;" style="text;html=1;align=center;verticalAlign=middle;resizable=0;points=[];autosize=1;strokeColor=none;fillColor=none;" vertex="1" parent="1">
          <mxGeometry x="440" y="343.13" width="70" height="40" as="geometry" />
        </mxCell>
        <mxCell id="7R4HDPwRscD3Cdx_cYnu-88" value="" style="curved=1;endArrow=classic;html=1;rounded=0;" edge="1" parent="1">
          <mxGeometry width="50" height="50" relative="1" as="geometry">
            <mxPoint x="395" y="396.88" as="sourcePoint" />
            <mxPoint x="470" y="450" as="targetPoint" />
            <Array as="points">
              <mxPoint x="405" y="406.88" />
              <mxPoint x="415" y="416.88" />
              <mxPoint x="405" y="436.88" />
              <mxPoint x="425" y="456.88" />
              <mxPoint x="450" y="460" />
            </Array>
          </mxGeometry>
        </mxCell>
        <mxCell id="7R4HDPwRscD3Cdx_cYnu-89" value="" style="shape=trapezoid;perimeter=trapezoidPerimeter;whiteSpace=wrap;html=1;fixedSize=1;rotation=-90;size=87.5;" vertex="1" parent="1">
          <mxGeometry x="450" y="278.13" width="265" height="90" as="geometry" />
        </mxCell>
        <mxCell id="7R4HDPwRscD3Cdx_cYnu-90" value="" style="endArrow=classic;html=1;rounded=0;" edge="1" parent="1">
          <mxGeometry width="50" height="50" relative="1" as="geometry">
            <mxPoint x="490" y="325.34" as="sourcePoint" />
            <mxPoint x="520" y="325.34" as="targetPoint" />
            <Array as="points" />
          </mxGeometry>
        </mxCell>
        <mxCell id="7R4HDPwRscD3Cdx_cYnu-91" value="Decoder" style="text;html=1;align=center;verticalAlign=middle;resizable=0;points=[];autosize=1;strokeColor=none;fillColor=none;" vertex="1" parent="1">
          <mxGeometry x="547.5" y="310.63" width="70" height="30" as="geometry" />
        </mxCell>
        <mxCell id="7R4HDPwRscD3Cdx_cYnu-92" value="" style="shape=internalStorage;whiteSpace=wrap;html=1;backgroundOutline=1;" vertex="1" parent="1">
          <mxGeometry x="710" y="213.13" width="80" height="80" as="geometry" />
        </mxCell>
        <mxCell id="7R4HDPwRscD3Cdx_cYnu-93" value="" style="shape=internalStorage;whiteSpace=wrap;html=1;backgroundOutline=1;" vertex="1" parent="1">
          <mxGeometry x="710" y="323.13" width="80" height="120" as="geometry" />
        </mxCell>
        <mxCell id="7R4HDPwRscD3Cdx_cYnu-97" value="" style="endArrow=classic;html=1;rounded=0;" edge="1" parent="1">
          <mxGeometry width="50" height="50" relative="1" as="geometry">
            <mxPoint x="660" y="260.34" as="sourcePoint" />
            <mxPoint x="690" y="260.34" as="targetPoint" />
            <Array as="points" />
          </mxGeometry>
        </mxCell>
        <mxCell id="7R4HDPwRscD3Cdx_cYnu-98" value="" style="endArrow=classic;html=1;rounded=0;" edge="1" parent="1">
          <mxGeometry width="50" height="50" relative="1" as="geometry">
            <mxPoint x="660" y="390.34" as="sourcePoint" />
            <mxPoint x="690" y="390.34" as="targetPoint" />
            <Array as="points" />
          </mxGeometry>
        </mxCell>
      </root>
    </mxGraphModel>
  </diagram>
</mxfile>
